<svg width="191" height="70" viewBox="0 0 191 70" fill="none" xmlns="http://www.w3.org/2000/svg">
<path d="M39.96 25.92L32.2 54H30.24L22.56 28.72L14.76 54H12.88L5.24 25.92H7.16L13.88 51.48L21.6 25.92H23.6L31.24 51.64L38 25.92H39.96ZM63.9884 41.68C63.9884 42.64 63.9618 43.36 63.9084 43.84H45.1484C45.2018 45.7867 45.6284 47.4267 46.4284 48.76C47.2284 50.0933 48.2818 51.0933 49.5884 51.76C50.8951 52.4267 52.3218 52.76 53.8684 52.76C56.0018 52.76 57.7884 52.24 59.2284 51.2C60.6684 50.1333 61.5751 48.6933 61.9484 46.88H63.8284C63.4018 49.0933 62.3084 50.8933 60.5484 52.28C58.7884 53.64 56.5618 54.32 53.8684 54.32C51.8418 54.32 50.0284 53.8667 48.4284 52.96C46.8284 52.0533 45.5751 50.76 44.6684 49.08C43.7618 47.3733 43.3084 45.3867 43.3084 43.12C43.3084 40.8533 43.7484 38.88 44.6284 37.2C45.5351 35.52 46.7884 34.24 48.3884 33.36C49.9884 32.4533 51.8151 32 53.8684 32C55.9484 32 57.7484 32.4533 59.2684 33.36C60.8151 34.24 61.9884 35.4267 62.7884 36.92C63.5884 38.3867 63.9884 39.9733 63.9884 41.68ZM62.1884 42.36C62.2684 40.44 61.9218 38.8133 61.1484 37.48C60.4018 36.1467 59.3751 35.16 58.0684 34.52C56.7618 33.8533 55.3484 33.52 53.8284 33.52C52.3084 33.52 50.8951 33.8533 49.5884 34.52C48.3084 35.16 47.2551 36.1467 46.4284 37.48C45.6284 38.8133 45.2018 40.44 45.1484 42.36H62.1884ZM74.5084 49.56H83.7084V54H68.9084V26.08H74.5084V49.56ZM85.8278 42.84C85.8278 40.6 86.2678 38.6133 87.1478 36.88C88.0545 35.1467 89.2678 33.8133 90.7878 32.88C92.3345 31.9467 94.0545 31.48 95.9478 31.48C97.6011 31.48 99.0411 31.8133 100.268 32.48C101.521 33.1467 102.521 33.9867 103.268 35V31.84H108.908V54H103.268V50.76C102.548 51.8 101.548 52.6667 100.268 53.36C99.0145 54.0267 97.5611 54.36 95.9078 54.36C94.0411 54.36 92.3345 53.88 90.7878 52.92C89.2678 51.96 88.0545 50.6133 87.1478 48.88C86.2678 47.12 85.8278 45.1067 85.8278 42.84ZM103.268 42.92C103.268 41.56 103.001 40.4 102.468 39.44C101.934 38.4533 101.214 37.7067 100.308 37.2C99.4011 36.6667 98.4278 36.4 97.3878 36.4C96.3478 36.4 95.3878 36.6533 94.5078 37.16C93.6278 37.6667 92.9078 38.4133 92.3478 39.4C91.8145 40.36 91.5478 41.5067 91.5478 42.84C91.5478 44.1733 91.8145 45.3467 92.3478 46.36C92.9078 47.3467 93.6278 48.1067 94.5078 48.64C95.4145 49.1733 96.3745 49.44 97.3878 49.44C98.4278 49.44 99.4011 49.1867 100.308 48.68C101.214 48.1467 101.934 47.4 102.468 46.44C103.001 45.4533 103.268 44.28 103.268 42.92ZM112.937 42.84C112.937 40.6 113.377 38.6133 114.257 36.88C115.164 35.1467 116.377 33.8133 117.897 32.88C119.444 31.9467 121.164 31.48 123.057 31.48C124.711 31.48 126.151 31.8133 127.377 32.48C128.631 33.1467 129.631 33.9867 130.377 35V31.84H136.017V54H130.377V50.76C129.657 51.8 128.657 52.6667 127.377 53.36C126.124 54.0267 124.671 54.36 123.017 54.36C121.151 54.36 119.444 53.88 117.897 52.92C116.377 51.96 115.164 50.6133 114.257 48.88C113.377 47.12 112.937 45.1067 112.937 42.84ZM130.377 42.92C130.377 41.56 130.111 40.4 129.577 39.44C129.044 38.4533 128.324 37.7067 127.417 37.2C126.511 36.6667 125.537 36.4 124.497 36.4C123.457 36.4 122.497 36.6533 121.617 37.16C120.737 37.6667 120.017 38.4133 119.457 39.4C118.924 40.36 118.657 41.5067 118.657 42.84C118.657 44.1733 118.924 45.3467 119.457 46.36C120.017 47.3467 120.737 48.1067 121.617 48.64C122.524 49.1733 123.484 49.44 124.497 49.44C125.537 49.44 126.511 49.1867 127.417 48.68C128.324 48.1467 129.044 47.4 129.577 46.44C130.111 45.4533 130.377 44.28 130.377 42.92ZM147.087 35.04C147.807 34.0267 148.793 33.1867 150.047 32.52C151.327 31.8267 152.78 31.48 154.407 31.48C156.3 31.48 158.007 31.9467 159.527 32.88C161.073 33.8133 162.287 35.1467 163.167 36.88C164.073 38.5867 164.527 40.5733 164.527 42.84C164.527 45.1067 164.073 47.12 163.167 48.88C162.287 50.6133 161.073 51.96 159.527 52.92C158.007 53.88 156.3 54.36 154.407 54.36C152.78 54.36 151.34 54.0267 150.087 53.36C148.86 52.6933 147.86 51.8533 147.087 50.84V64.56H141.487V31.84H147.087V35.04ZM158.807 42.84C158.807 41.5067 158.527 40.36 157.967 39.4C157.433 38.4133 156.713 37.6667 155.807 37.16C154.927 36.6533 153.967 36.4 152.927 36.4C151.913 36.4 150.953 36.6667 150.047 37.2C149.167 37.7067 148.447 38.4533 147.887 39.44C147.353 40.4267 147.087 41.5867 147.087 42.92C147.087 44.2533 147.353 45.4133 147.887 46.4C148.447 47.3867 149.167 48.1467 150.047 48.68C150.953 49.1867 151.913 49.44 152.927 49.44C153.967 49.44 154.927 49.1733 155.807 48.64C156.713 48.1067 157.433 47.3467 157.967 46.36C158.527 45.3733 158.807 44.2 158.807 42.84ZM177.076 54.36C175.263 54.36 173.636 54.04 172.196 53.4C170.756 52.7333 169.609 51.84 168.756 50.72C167.929 49.6 167.476 48.36 167.396 47H173.036C173.143 47.8533 173.556 48.56 174.276 49.12C175.023 49.68 175.943 49.96 177.036 49.96C178.103 49.96 178.929 49.7467 179.516 49.32C180.129 48.8933 180.436 48.3467 180.436 47.68C180.436 46.96 180.063 46.4267 179.316 46.08C178.596 45.7067 177.436 45.3067 175.836 44.88C174.183 44.48 172.823 44.0667 171.756 43.64C170.716 43.2133 169.809 42.56 169.036 41.68C168.289 40.8 167.916 39.6133 167.916 38.12C167.916 36.8933 168.263 35.7733 168.956 34.76C169.676 33.7467 170.689 32.9467 171.996 32.36C173.329 31.7733 174.889 31.48 176.676 31.48C179.316 31.48 181.423 32.1467 182.996 33.48C184.569 34.7867 185.436 36.56 185.596 38.8H180.236C180.156 37.92 179.783 37.2267 179.116 36.72C178.476 36.1867 177.609 35.92 176.516 35.92C175.503 35.92 174.716 36.1067 174.156 36.48C173.623 36.8533 173.356 37.3733 173.356 38.04C173.356 38.7867 173.729 39.36 174.476 39.76C175.223 40.1333 176.383 40.52 177.956 40.92C179.556 41.32 180.876 41.7333 181.916 42.16C182.956 42.5867 183.849 43.2533 184.596 44.16C185.369 45.04 185.769 46.2133 185.796 47.68C185.796 48.96 185.436 50.1067 184.716 51.12C184.023 52.1333 183.009 52.9333 181.676 53.52C180.369 54.08 178.836 54.36 177.076 54.36Z" fill="black"/>
<path d="M52.8683 15.2873C52.5252 16.3504 52.586 17.4267 52.6778 18.5025C52.762 19.4895 52.9988 20.4421 53.3063 21.384C53.5099 22.0074 53.7387 22.6154 54.0301 23.201C54.0565 23.2541 54.0592 23.2987 54.0464 23.3547C53.8339 24.2818 53.8451 25.2289 53.8001 26.1708C53.7821 26.5484 53.756 26.9249 53.6964 27.2984C53.6235 27.7556 53.5084 27.8345 53.0542 27.7313C52.513 27.6084 51.9931 27.4188 51.4724 27.2289C50.3876 26.8334 49.3256 26.3775 48.2286 26.0149C48.1581 25.9916 48.0874 25.9689 48.0157 25.9498C47.862 25.9088 47.7294 25.8974 47.727 26.1226C47.7264 26.1775 47.681 26.2338 47.6504 26.2859C47.3426 26.8082 47.4056 27.6319 47.7896 28.095C47.8577 28.1771 47.9349 28.2427 48.05 28.21C48.1668 28.1768 48.1762 28.0691 48.1702 27.9783C48.1551 27.7496 48.1362 27.5198 48.0955 27.2945C48.0317 26.9412 48.0224 26.5863 48.0134 26.22C48.124 26.2106 48.2084 26.2559 48.2928 26.2877C49.4239 26.715 50.5534 27.1466 51.6847 27.5732C52.1463 27.7474 52.6164 27.8966 53.1019 27.9889C53.6217 28.0877 53.863 27.9209 53.9591 27.4018C54.0378 26.9764 54.061 26.5454 54.077 26.114C54.1069 25.3064 54.1118 24.4973 54.226 23.6945C54.261 23.4485 54.3548 23.2559 54.5244 23.0606C55.3118 22.154 56.2501 21.431 57.2473 20.7825C58.0618 20.2527 58.9408 19.8414 59.8548 19.5102C60.2272 19.3752 60.4794 19.475 60.7406 19.7992C61.2227 20.3977 61.5224 21.1037 61.9072 21.7593C62.2924 22.4158 62.644 23.0918 63.0192 23.7541C63.1144 23.9221 63.237 24.0761 63.3589 24.2268C63.4416 24.3292 63.5577 24.3114 63.6507 24.2406C64.1519 23.8585 64.6326 23.4548 64.9333 22.8837C64.983 22.7893 65.0172 22.6837 65.0404 22.5792C65.0698 22.4474 65.0949 22.3027 64.9693 22.2041C64.8402 22.1028 64.7016 22.142 64.5702 22.2134C64.1968 22.4166 63.9241 22.7208 63.718 23.0851C63.5925 23.3068 63.4868 23.5397 63.3671 23.7778C63.2442 23.6501 63.1917 23.4896 63.1114 23.3466C62.5739 22.3888 62.0362 21.4311 61.5035 20.4707C61.3259 20.1504 61.1114 19.8572 60.8787 19.5772C60.5933 19.2336 60.2451 19.1509 59.8245 19.2874C58.4845 19.7222 57.259 20.3729 56.146 21.2342C56.0213 21.3308 55.9395 21.3355 55.7936 21.2639C54.9926 20.8702 54.3128 20.3334 53.743 19.6463C53.338 19.1579 53.0283 18.6086 52.9312 17.9958C52.7917 17.1147 52.8386 16.2245 53.1018 15.3716C53.1732 15.333 53.2089 15.3772 53.2475 15.3971C54.3058 15.9413 55.4377 16.0618 56.6074 16.0096C57.5405 15.9679 58.4128 15.7229 59.2528 15.3284C59.7525 15.0937 60.1125 14.7064 60.4472 14.2881C60.6161 14.077 60.8019 13.8694 60.9037 13.6194C61.0343 13.2989 61.3466 13.1631 61.5473 12.9162C61.7692 12.643 61.8857 12.3529 61.8003 11.9989C61.766 11.8569 61.6968 11.7402 61.5525 11.7075C61.3979 11.6725 61.3227 11.8016 61.254 11.9073C61.0917 12.157 61.037 12.4449 61.0018 12.7329C60.9798 12.9121 60.9258 13.0705 60.8376 13.2262C60.6639 13.5331 60.4613 13.8193 60.2572 14.1062C59.7546 14.813 59.0487 15.2006 58.2372 15.4395C56.5476 15.9369 54.8938 15.8661 53.2767 15.1488C53.2581 15.1406 53.2394 15.1324 53.2052 15.1174C53.2457 15.0153 53.2816 14.9245 53.3167 14.8358C55.8692 15.3748 57.5603 13.5756 57.867 11.9915C58.227 10.1315 57.1196 8.25912 55.3027 7.71123C53.4744 7.15998 51.5188 8.10244 50.8057 9.86262C50.0781 11.6582 50.8955 14.0069 53.0773 14.7669C53.0642 14.8684 53.0127 14.955 52.9671 15.0486C52.29 15.0236 51.6577 14.8167 51.0339 14.5806C50.3447 14.3197 49.6481 14.0841 48.9275 13.9259C48.677 13.871 48.4272 13.8369 48.1659 13.8722C47.6622 13.9403 47.3884 14.2426 47.2652 14.7083C47.1324 15.2104 47.1119 15.7216 47.1934 16.2327C47.4086 17.5824 47.9101 18.8253 48.6209 19.9875C48.6826 20.0883 48.6999 20.1885 48.7042 20.3094C48.7187 20.7093 48.8434 21.0782 49.1091 21.3865C49.2041 21.4967 49.3218 21.5979 49.478 21.5093C49.6251 21.426 49.6263 21.278 49.5908 21.1325C49.5468 20.9528 49.4461 20.8002 49.3432 20.6498C48.7826 19.8304 48.2822 18.9768 47.9415 18.0411C47.6223 17.1646 47.3334 16.2781 47.4273 15.3223C47.4437 15.1551 47.4674 14.9871 47.5077 14.8242C47.6335 14.3137 47.9433 14.0908 48.4679 14.1374C49.0099 14.1855 49.5228 14.361 50.0388 14.5196C50.6325 14.7021 51.2025 14.9546 51.8028 15.1196C52.1489 15.215 52.4988 15.2775 52.8683 15.2873ZM54.8978 14.6032C53.1783 14.9812 51.2657 13.8928 50.8816 11.937C50.4779 9.8811 51.9127 8.24344 53.5439 7.90268C55.2461 7.54729 57.1344 8.56377 57.5644 10.4618C58.0206 12.4749 56.6701 14.2991 54.8978 14.6032ZM54.2186 23.0975C53.6298 21.7384 53.21 20.3941 52.9996 18.9847C53.6233 20.1473 54.5833 20.9415 55.7652 21.5273C55.1836 21.9768 54.6874 22.4859 54.2186 23.0975ZM63.6229 23.9617C63.7486 23.3893 64.3992 22.4317 64.8259 22.4125C64.675 23.1208 64.1251 23.4993 63.6229 23.9617ZM61.241 12.8708C61.297 12.528 61.3311 12.2342 61.5129 11.9624C61.6605 12.2414 61.5834 12.5027 61.241 12.8708ZM47.7635 26.6989C47.8084 27.0548 47.8533 27.4108 47.8982 27.7666C47.6871 27.4275 47.6652 27.0659 47.7635 26.6989ZM49.015 20.6355C49.1539 20.8217 49.3228 20.9926 49.3709 21.2846C49.1418 21.0921 49.0858 20.8597 49.015 20.6355Z" fill="black"/>
<path d="M55.9716 11.736C55.8719 11.7626 55.7163 11.6738 55.6941 11.8264C55.6713 11.9843 55.831 11.9821 55.9359 12.0107C56.1628 12.0725 56.3907 12.1304 56.6257 12.1556C56.7393 12.1678 56.8237 12.1503 56.855 12.0207C56.8841 11.9006 56.8381 11.8294 56.7339 11.7762C56.4576 11.6351 56.1835 11.4895 55.9081 11.3467C55.8183 11.3001 55.7118 11.2302 55.6458 11.3573C55.5853 11.4738 55.6918 11.5369 55.7744 11.5976C55.8371 11.6435 55.9204 11.6606 55.9716 11.736Z" fill="black"/>
<path d="M56.4446 13.5429C56.2492 13.6602 55.7835 13.7547 55.4841 13.194" stroke="black" stroke-width="0.233653" stroke-linecap="round"/>
</svg>
